<svg xmlns="http://www.w3.org/2000/svg" xmlns:xlink="http://www.w3.org/1999/xlink" width="500" zoomAndPan="magnify" viewBox="0 0 375 374.999991" height="500" preserveAspectRatio="xMidYMid meet" version="1.0"><defs><filter x="0%" y="0%" width="100%" height="100%" id="a269594cc0"><feColorMatrix values="0 0 0 0 1 0 0 0 0 1 0 0 0 0 1 0 0 0 1 0" color-interpolation-filters="sRGB"/></filter><mask id="9d52af5176"><g filter="url(#a269594cc0)"><rect x="-37.5" width="450" fill="#000000" y="-37.499999" height="449.999989" fill-opacity="0.2"/></g></mask><clipPath id="4b9c83c5ab"><rect x="0" width="375" y="0" height="375"/></clipPath></defs><g mask="url(#9d52af5176)"><g transform="matrix(1, 0, 0, 1, 0, 0)"><g clip-path="url(#4b9c83c5ab)"><path fill="#000000" d="M 139.84375 15.625 L 136.71875 15.625 L 59.375 51.5625 C 58.6875 51.863281 58.058594 52.253906 57.484375 52.734375 C 56.910156 53.214844 56.414062 53.765625 56 54.390625 C 55.582031 55.011719 55.265625 55.683594 55.039062 56.398438 C 54.816406 57.113281 54.699219 57.84375 54.6875 58.59375 L 54.6875 116.40625 L 50 120.3125 L 18.75 146.09375 C 18.207031 146.398438 17.722656 146.777344 17.292969 147.230469 C 16.863281 147.679688 16.511719 148.183594 16.234375 148.742188 C 15.953125 149.296875 15.761719 149.882812 15.660156 150.496094 C 15.554688 151.109375 15.542969 151.726562 15.625 152.34375 L 15.625 222.65625 C 15.589844 223.269531 15.636719 223.875 15.757812 224.472656 C 15.882812 225.074219 16.082031 225.648438 16.355469 226.195312 C 16.628906 226.746094 16.96875 227.25 17.375 227.707031 C 17.78125 228.167969 18.238281 228.566406 18.75 228.90625 L 50 254.6875 L 54.6875 258.59375 L 54.6875 316.40625 C 54.699219 317.15625 54.816406 317.886719 55.039062 318.601562 C 55.265625 319.316406 55.582031 319.988281 56 320.609375 C 56.414062 321.234375 56.910156 321.785156 57.484375 322.265625 C 58.058594 322.746094 58.6875 323.136719 59.375 323.4375 L 136.71875 358.59375 L 139.84375 358.59375 L 144.53125 357.03125 L 175.78125 335.9375 L 175.78125 199.21875 L 164.0625 199.21875 C 163.292969 199.21875 162.53125 199.144531 161.777344 198.992188 C 161.023438 198.84375 160.289062 198.621094 159.578125 198.328125 C 158.867188 198.03125 158.191406 197.671875 157.550781 197.242188 C 156.914062 196.816406 156.320312 196.332031 155.777344 195.785156 C 155.230469 195.242188 154.746094 194.648438 154.320312 194.011719 C 153.890625 193.371094 153.53125 192.695312 153.234375 191.984375 C 152.941406 191.273438 152.71875 190.539062 152.570312 189.785156 C 152.417969 189.03125 152.34375 188.269531 152.34375 187.5 C 152.34375 186.730469 152.417969 185.96875 152.570312 185.214844 C 152.71875 184.460938 152.941406 183.726562 153.234375 183.015625 C 153.53125 182.304688 153.890625 181.628906 154.320312 180.988281 C 154.746094 180.351562 155.230469 179.757812 155.777344 179.214844 C 156.320312 178.667969 156.914062 178.183594 157.550781 177.757812 C 158.191406 177.328125 158.867188 176.96875 159.578125 176.671875 C 160.289062 176.378906 161.023438 176.15625 161.777344 176.007812 C 162.53125 175.855469 163.292969 175.78125 164.0625 175.78125 L 175.78125 175.78125 L 175.78125 38.28125 L 144.53125 17.1875 Z M 70.3125 105.46875 L 92.1875 120.3125 C 92.832031 120.746094 93.429688 121.234375 93.980469 121.785156 C 94.527344 122.335938 95.015625 122.9375 95.445312 123.585938 C 95.875 124.234375 96.234375 124.917969 96.527344 125.636719 C 96.820312 126.355469 97.039062 127.097656 97.183594 127.859375 C 97.332031 128.625 97.398438 129.394531 97.390625 130.171875 C 97.382812 130.949219 97.300781 131.71875 97.140625 132.476562 C 96.976562 133.238281 96.742188 133.976562 96.4375 134.6875 C 96.128906 135.402344 95.753906 136.078125 95.3125 136.71875 C 94.835938 137.542969 94.261719 138.292969 93.589844 138.96875 C 92.921875 139.640625 92.171875 140.21875 91.351562 140.699219 C 90.527344 141.175781 89.660156 141.542969 88.742188 141.796875 C 87.824219 142.046875 86.890625 142.179688 85.9375 142.1875 C 84.78125 142.234375 83.660156 142.054688 82.574219 141.648438 C 81.492188 141.242188 80.527344 140.640625 79.6875 139.84375 L 70.3125 133.59375 Z M 31.25 175.78125 L 58.59375 175.78125 C 59.363281 175.78125 60.125 175.855469 60.878906 176.007812 C 61.632812 176.15625 62.367188 176.378906 63.078125 176.671875 C 63.789062 176.96875 64.464844 177.328125 65.105469 177.757812 C 65.742188 178.183594 66.335938 178.667969 66.878906 179.214844 C 67.425781 179.757812 67.910156 180.351562 68.335938 180.988281 C 68.765625 181.628906 69.125 182.304688 69.421875 183.015625 C 69.714844 183.726562 69.9375 184.460938 70.085938 185.214844 C 70.238281 185.96875 70.3125 186.730469 70.3125 187.5 C 70.3125 188.269531 70.238281 189.03125 70.085938 189.785156 C 69.9375 190.539062 69.714844 191.273438 69.421875 191.984375 C 69.125 192.695312 68.765625 193.371094 68.335938 194.011719 C 67.910156 194.648438 67.425781 195.242188 66.878906 195.785156 C 66.335938 196.332031 65.742188 196.816406 65.105469 197.242188 C 64.464844 197.671875 63.789062 198.03125 63.078125 198.328125 C 62.367188 198.621094 61.632812 198.84375 60.878906 198.992188 C 60.125 199.144531 59.363281 199.21875 58.59375 199.21875 L 31.25 199.21875 Z M 70.3125 241.40625 L 79.6875 235.15625 C 80.296875 234.722656 80.941406 234.355469 81.625 234.054688 C 82.308594 233.753906 83.015625 233.527344 83.742188 233.371094 C 84.472656 233.214844 85.210938 233.132812 85.957031 233.128906 C 86.703125 233.125 87.445312 233.195312 88.175781 233.339844 C 88.90625 233.488281 89.617188 233.707031 90.304688 234 C 90.992188 234.289062 91.640625 234.648438 92.253906 235.074219 C 92.867188 235.496094 93.433594 235.980469 93.949219 236.519531 C 94.460938 237.0625 94.917969 237.648438 95.3125 238.28125 C 95.753906 238.921875 96.128906 239.597656 96.4375 240.3125 C 96.742188 241.023438 96.976562 241.761719 97.140625 242.523438 C 97.300781 243.28125 97.382812 244.050781 97.390625 244.828125 C 97.398438 245.605469 97.332031 246.375 97.183594 247.140625 C 97.039062 247.902344 96.820312 248.644531 96.527344 249.363281 C 96.234375 250.082031 95.875 250.765625 95.445312 251.414062 C 95.015625 252.0625 94.527344 252.664062 93.980469 253.214844 C 93.429688 253.765625 92.832031 254.253906 92.1875 254.6875 L 70.3125 269.53125 Z M 152.34375 145.3125 L 121.09375 176.5625 L 121.09375 198.4375 L 152.34375 229.6875 L 152.34375 270.3125 L 125.78125 297.65625 C 123.21875 299.527344 120.355469 300.570312 117.1875 300.78125 C 114.019531 300.570312 111.15625 299.527344 108.59375 297.65625 C 108.050781 297.082031 107.5625 296.460938 107.136719 295.792969 C 106.710938 295.125 106.351562 294.421875 106.058594 293.6875 C 105.765625 292.953125 105.542969 292.195312 105.394531 291.417969 C 105.246094 290.640625 105.171875 289.855469 105.171875 289.0625 C 105.171875 288.269531 105.246094 287.484375 105.394531 286.707031 C 105.542969 285.929688 105.765625 285.171875 106.058594 284.4375 C 106.351562 283.703125 106.710938 283 107.136719 282.332031 C 107.5625 281.664062 108.050781 281.042969 108.59375 280.46875 L 128.90625 260.9375 L 128.90625 239.0625 L 97.65625 207.8125 L 97.65625 167.1875 L 128.90625 135.9375 L 128.90625 114.0625 L 108.59375 94.53125 C 108.191406 94.285156 107.804688 94.015625 107.433594 93.726562 C 107.0625 93.4375 106.707031 93.128906 106.371094 92.800781 C 106.035156 92.46875 105.71875 92.121094 105.421875 91.757812 C 105.125 91.390625 104.847656 91.007812 104.59375 90.613281 C 104.339844 90.214844 104.109375 89.808594 103.902344 89.382812 C 103.695312 88.960938 103.511719 88.527344 103.351562 88.085938 C 103.195312 87.640625 103.058594 87.191406 102.953125 86.730469 C 102.84375 86.273438 102.761719 85.808594 102.707031 85.34375 C 102.652344 84.875 102.625 84.40625 102.621094 83.933594 C 102.617188 83.464844 102.640625 82.992188 102.691406 82.523438 C 102.742188 82.058594 102.820312 81.59375 102.925781 81.132812 C 103.027344 80.671875 103.15625 80.222656 103.308594 79.777344 C 103.464844 79.332031 103.644531 78.894531 103.847656 78.472656 C 104.050781 78.046875 104.277344 77.632812 104.527344 77.234375 C 104.777344 76.835938 105.046875 76.453125 105.34375 76.082031 C 105.636719 75.714844 105.949219 75.363281 106.28125 75.03125 C 106.613281 74.699219 106.964844 74.386719 107.335938 74.09375 C 107.703125 73.796875 108.085938 73.527344 108.484375 73.277344 C 108.882812 73.027344 109.296875 72.800781 109.722656 72.597656 C 110.144531 72.394531 110.582031 72.214844 111.027344 72.058594 C 111.472656 71.90625 111.921875 71.777344 112.382812 71.675781 C 112.84375 71.570312 113.308594 71.492188 113.773438 71.441406 C 114.242188 71.390625 114.714844 71.367188 115.183594 71.371094 C 115.65625 71.375 116.125 71.402344 116.59375 71.457031 C 117.058594 71.511719 117.523438 71.59375 117.980469 71.703125 C 118.441406 71.808594 118.890625 71.945312 119.335938 72.101562 C 119.777344 72.261719 120.210938 72.445312 120.632812 72.652344 C 121.058594 72.859375 121.464844 73.089844 121.863281 73.34375 C 122.257812 73.597656 122.640625 73.875 123.007812 74.171875 C 123.371094 74.46875 123.71875 74.785156 124.050781 75.121094 C 124.378906 75.457031 124.6875 75.8125 124.976562 76.183594 C 125.265625 76.554688 125.535156 76.941406 125.78125 77.34375 L 152.34375 104.6875 Z M 152.34375 145.3125 " fill-opacity="1" fill-rule="nonzero"/><path fill="#000000" d="M 356.25 146.09375 L 325 120.3125 L 320.3125 116.40625 L 320.3125 58.59375 C 320.300781 57.84375 320.183594 57.113281 319.960938 56.398438 C 319.734375 55.683594 319.417969 55.011719 319 54.390625 C 318.585938 53.765625 318.089844 53.214844 317.515625 52.734375 C 316.941406 52.253906 316.3125 51.863281 315.625 51.5625 L 238.28125 16.40625 L 235.15625 16.40625 L 230.46875 17.96875 L 199.21875 39.0625 L 199.21875 175.78125 L 210.9375 175.78125 C 211.707031 175.78125 212.46875 175.855469 213.222656 176.007812 C 213.976562 176.15625 214.710938 176.378906 215.421875 176.671875 C 216.132812 176.96875 216.808594 177.328125 217.449219 177.757812 C 218.085938 178.183594 218.679688 178.667969 219.222656 179.214844 C 219.769531 179.757812 220.253906 180.351562 220.679688 180.988281 C 221.109375 181.628906 221.46875 182.304688 221.765625 183.015625 C 222.058594 183.726562 222.28125 184.460938 222.429688 185.214844 C 222.582031 185.96875 222.65625 186.730469 222.65625 187.5 C 222.65625 188.269531 222.582031 189.03125 222.429688 189.785156 C 222.28125 190.539062 222.058594 191.273438 221.765625 191.984375 C 221.46875 192.695312 221.109375 193.371094 220.679688 194.011719 C 220.253906 194.648438 219.769531 195.242188 219.222656 195.785156 C 218.679688 196.332031 218.085938 196.816406 217.449219 197.242188 C 216.808594 197.671875 216.132812 198.03125 215.421875 198.328125 C 214.710938 198.621094 213.976562 198.84375 213.222656 198.992188 C 212.46875 199.144531 211.707031 199.21875 210.9375 199.21875 L 199.21875 199.21875 L 199.21875 336.71875 L 230.46875 357.8125 L 235.15625 359.375 L 238.28125 359.375 L 315.625 324.21875 C 316.3125 323.917969 316.941406 323.527344 317.515625 323.046875 C 318.089844 322.566406 318.585938 322.015625 319 321.390625 C 319.417969 320.769531 319.738281 320.097656 319.960938 319.382812 C 320.183594 318.667969 320.300781 317.9375 320.3125 317.1875 L 320.3125 258.59375 L 325 254.6875 L 356.25 228.90625 C 356.761719 228.566406 357.21875 228.167969 357.625 227.707031 C 358.03125 227.25 358.371094 226.746094 358.644531 226.195312 C 358.917969 225.648438 359.117188 225.074219 359.242188 224.472656 C 359.363281 223.875 359.410156 223.269531 359.375 222.65625 L 359.375 152.34375 C 359.457031 151.726562 359.445312 151.109375 359.339844 150.496094 C 359.238281 149.882812 359.046875 149.296875 358.765625 148.742188 C 358.488281 148.183594 358.136719 147.679688 357.707031 147.230469 C 357.277344 146.777344 356.792969 146.398438 356.25 146.09375 Z M 304.6875 133.59375 L 295.3125 139.84375 C 294.472656 140.640625 293.507812 141.242188 292.425781 141.648438 C 291.339844 142.054688 290.21875 142.234375 289.0625 142.1875 C 288.109375 142.179688 287.175781 142.046875 286.257812 141.796875 C 285.339844 141.542969 284.472656 141.175781 283.648438 140.699219 C 282.828125 140.21875 282.078125 139.640625 281.410156 138.96875 C 280.738281 138.292969 280.164062 137.542969 279.6875 136.71875 C 279.246094 136.078125 278.871094 135.402344 278.5625 134.6875 C 278.257812 133.976562 278.023438 133.238281 277.859375 132.476562 C 277.699219 131.71875 277.617188 130.949219 277.609375 130.171875 C 277.601562 129.394531 277.667969 128.625 277.816406 127.859375 C 277.960938 127.097656 278.179688 126.355469 278.472656 125.636719 C 278.765625 124.917969 279.125 124.234375 279.554688 123.585938 C 279.984375 122.9375 280.472656 122.335938 281.019531 121.785156 C 281.570312 121.234375 282.167969 120.746094 282.8125 120.3125 L 304.6875 105.46875 Z M 222.65625 229.6875 L 253.90625 198.4375 L 253.90625 176.5625 L 222.65625 145.3125 L 222.65625 104.6875 L 249.21875 77.34375 C 249.8125 76.980469 250.433594 76.667969 251.078125 76.40625 C 251.726562 76.148438 252.390625 75.941406 253.070312 75.792969 C 253.75 75.644531 254.441406 75.554688 255.136719 75.519531 C 255.832031 75.484375 256.527344 75.507812 257.21875 75.589844 C 257.910156 75.671875 258.589844 75.8125 259.257812 76.007812 C 259.925781 76.203125 260.574219 76.453125 261.203125 76.757812 C 261.828125 77.0625 262.425781 77.417969 262.992188 77.820312 C 263.5625 78.222656 264.089844 78.671875 264.585938 79.164062 C 265.078125 79.660156 265.527344 80.1875 265.929688 80.757812 C 266.332031 81.324219 266.6875 81.921875 266.992188 82.546875 C 267.296875 83.175781 267.546875 83.824219 267.742188 84.492188 C 267.9375 85.160156 268.078125 85.839844 268.160156 86.53125 C 268.242188 87.226562 268.265625 87.917969 268.230469 88.613281 C 268.195312 89.308594 268.105469 90 267.957031 90.679688 C 267.808594 91.359375 267.601562 92.023438 267.34375 92.671875 C 267.082031 93.316406 266.769531 93.9375 266.40625 94.53125 L 246.09375 114.0625 L 246.09375 135.9375 L 277.34375 167.1875 L 277.34375 207.8125 L 246.09375 239.0625 L 246.09375 260.9375 L 266.40625 280.46875 C 266.949219 281.042969 267.4375 281.664062 267.863281 282.332031 C 268.289062 283 268.648438 283.703125 268.941406 284.4375 C 269.234375 285.171875 269.457031 285.929688 269.605469 286.707031 C 269.753906 287.484375 269.828125 288.269531 269.828125 289.0625 C 269.828125 289.855469 269.753906 290.640625 269.605469 291.417969 C 269.457031 292.195312 269.234375 292.953125 268.941406 293.6875 C 268.648438 294.421875 268.289062 295.125 267.863281 295.792969 C 267.4375 296.460938 266.949219 297.082031 266.40625 297.65625 C 265.8125 298.160156 265.175781 298.609375 264.5 299.003906 C 263.828125 299.398438 263.121094 299.730469 262.390625 299.996094 C 261.65625 300.265625 260.90625 300.46875 260.136719 300.605469 C 259.367188 300.742188 258.59375 300.8125 257.8125 300.8125 C 257.03125 300.8125 256.257812 300.742188 255.488281 300.605469 C 254.71875 300.46875 253.96875 300.265625 253.234375 299.996094 C 252.503906 299.726562 251.796875 299.398438 251.125 299.003906 C 250.449219 298.609375 249.8125 298.160156 249.21875 297.65625 L 222.65625 270.3125 Z M 304.6875 269.53125 L 282.8125 254.6875 C 282.167969 254.253906 281.570312 253.765625 281.019531 253.214844 C 280.472656 252.664062 279.984375 252.0625 279.554688 251.414062 C 279.125 250.765625 278.765625 250.082031 278.472656 249.363281 C 278.179688 248.644531 277.960938 247.902344 277.816406 247.140625 C 277.667969 246.375 277.601562 245.605469 277.609375 244.828125 C 277.617188 244.050781 277.699219 243.28125 277.859375 242.523438 C 278.023438 241.761719 278.257812 241.023438 278.5625 240.3125 C 278.871094 239.597656 279.246094 238.921875 279.6875 238.28125 C 280.082031 237.648438 280.539062 237.0625 281.050781 236.519531 C 281.566406 235.980469 282.132812 235.496094 282.746094 235.074219 C 283.359375 234.648438 284.007812 234.289062 284.695312 234 C 285.382812 233.707031 286.09375 233.488281 286.824219 233.339844 C 287.554688 233.195312 288.296875 233.125 289.042969 233.128906 C 289.789062 233.132812 290.527344 233.214844 291.257812 233.371094 C 291.984375 233.527344 292.691406 233.753906 293.375 234.054688 C 294.058594 234.355469 294.703125 234.722656 295.3125 235.15625 L 304.6875 241.40625 Z M 343.75 199.21875 L 316.40625 199.21875 C 315.636719 199.21875 314.875 199.144531 314.121094 198.992188 C 313.367188 198.84375 312.632812 198.621094 311.921875 198.328125 C 311.210938 198.03125 310.535156 197.671875 309.894531 197.242188 C 309.257812 196.816406 308.664062 196.332031 308.121094 195.785156 C 307.574219 195.242188 307.089844 194.648438 306.664062 194.011719 C 306.234375 193.371094 305.875 192.695312 305.578125 191.984375 C 305.285156 191.273438 305.0625 190.539062 304.914062 189.785156 C 304.761719 189.03125 304.6875 188.269531 304.6875 187.5 C 304.6875 186.730469 304.761719 185.96875 304.914062 185.214844 C 305.0625 184.460938 305.285156 183.726562 305.578125 183.015625 C 305.875 182.304688 306.234375 181.628906 306.664062 180.988281 C 307.089844 180.351562 307.574219 179.757812 308.121094 179.214844 C 308.664062 178.667969 309.257812 178.183594 309.894531 177.757812 C 310.535156 177.328125 311.210938 176.96875 311.921875 176.671875 C 312.632812 176.378906 313.367188 176.15625 314.121094 176.007812 C 314.875 175.855469 315.636719 175.78125 316.40625 175.78125 L 343.75 175.78125 Z M 343.75 199.21875 " fill-opacity="1" fill-rule="nonzero"/></g></g></g></svg>