<svg xmlns="http://www.w3.org/2000/svg" xmlns:xlink="http://www.w3.org/1999/xlink" width="500" zoomAndPan="magnify" viewBox="0 0 375 374.999991" height="500" preserveAspectRatio="xMidYMid meet" version="1.0"><defs><filter x="0%" y="0%" width="100%" height="100%" id="e8a267ec1f"><feColorMatrix values="0 0 0 0 1 0 0 0 0 1 0 0 0 0 1 0 0 0 1 0" color-interpolation-filters="sRGB"/></filter><mask id="ed5c80df72"><g filter="url(#e8a267ec1f)"><rect x="-37.5" width="450" fill="#000000" y="-37.499999" height="449.999989" fill-opacity="0.2"/></g></mask><clipPath id="10969d83af"><path d="M 0.800781 0.199219 L 282.320312 0.199219 L 282.320312 312.921875 L 0.800781 312.921875 Z M 0.800781 0.199219 " clip-rule="nonzero"/></clipPath><clipPath id="6af5a7a7a2"><rect x="0" width="283" y="0" height="313"/></clipPath></defs><g mask="url(#ed5c80df72)"><g transform="matrix(1, 0, 0, 1, 46, 31)"><g clip-path="url(#6af5a7a7a2)"><g clip-path="url(#10969d83af)"><path fill="#000000" d="M 19.179688 18.554688 C 0.875 36.863281 0.875 66.324219 0.875 125.25 L 0.875 187.75 C 0.875 246.675781 0.875 276.140625 19.179688 294.445312 C 37.488281 312.75 66.949219 312.75 125.875 312.75 L 157.125 312.75 C 216.050781 312.75 245.515625 312.75 263.820312 294.445312 C 282.125 276.140625 282.125 246.675781 282.125 187.75 L 282.125 125.25 C 282.125 66.324219 282.125 36.863281 263.820312 18.554688 C 245.515625 0.25 216.050781 0.25 157.125 0.25 L 125.875 0.25 C 66.949219 0.25 37.488281 0.25 19.179688 18.554688 Z M 67.28125 94 C 67.28125 87.527344 72.527344 82.28125 79 82.28125 L 204 82.28125 C 210.472656 82.28125 215.71875 87.527344 215.71875 94 C 215.71875 100.472656 210.472656 105.71875 204 105.71875 L 79 105.71875 C 72.527344 105.71875 67.28125 100.472656 67.28125 94 Z M 67.28125 156.5 C 67.28125 150.027344 72.527344 144.78125 79 144.78125 L 204 144.78125 C 210.472656 144.78125 215.71875 150.027344 215.71875 156.5 C 215.71875 162.972656 210.472656 168.21875 204 168.21875 L 79 168.21875 C 72.527344 168.21875 67.28125 162.972656 67.28125 156.5 Z M 79 207.28125 C 72.527344 207.28125 67.28125 212.527344 67.28125 219 C 67.28125 225.472656 72.527344 230.71875 79 230.71875 L 157.125 230.71875 C 163.597656 230.71875 168.84375 225.472656 168.84375 219 C 168.84375 212.527344 163.597656 207.28125 157.125 207.28125 Z M 79 207.28125 " fill-opacity="1" fill-rule="evenodd"/></g></g></g></g></svg>