<svg xmlns="http://www.w3.org/2000/svg" xmlns:xlink="http://www.w3.org/1999/xlink" width="500" zoomAndPan="magnify" viewBox="0 0 375 374.999991" height="500" preserveAspectRatio="xMidYMid meet" version="1.0"><defs><filter x="0%" y="0%" width="100%" height="100%" id="9eec698acd"><feColorMatrix values="0 0 0 0 1 0 0 0 0 1 0 0 0 0 1 0 0 0 1 0" color-interpolation-filters="sRGB"/></filter><mask id="f5818d5e26"><g filter="url(#9eec698acd)"><rect x="-37.5" width="450" fill="#000000" y="-37.499999" height="449.999989" fill-opacity="0.2"/></g></mask><clipPath id="7a5977428b"><path d="M 0.28125 0.398438 L 270 0.398438 L 270 370.480469 L 0.28125 370.480469 Z M 0.28125 0.398438 " clip-rule="nonzero"/></clipPath><clipPath id="38c7704cad"><path d="M 133.65625 370.417969 Z M 15.890625 147.640625 L 15.226562 149.203125 L 15.890625 149.480469 Z M 108.761719 0.617188 L 108.761719 135.679688 L 35.316406 102.714844 L 35.316406 157.558594 L 108.761719 188.101562 L 108.761719 353.582031 L 0.480469 280.347656 L 0.480469 117.765625 L 1 117.765625 L 0.480469 113.335938 C 0.480469 57.769531 46.636719 11.40625 108 0.683594 Z M 161.125 0.582031 L 162.277344 0.683594 C 223.640625 11.40625 269.800781 57.769531 269.800781 113.335938 L 269.277344 117.765625 L 269.800781 117.765625 L 269.800781 280.347656 L 269.789062 280.347656 L 161.125 352.242188 L 161.125 188.65625 L 236.644531 156.089844 L 235.980469 105.351562 L 161.125 135.191406 Z M 161.125 0.582031 " clip-rule="evenodd"/></clipPath><radialGradient gradientTransform="matrix(1, 0, 0, 1, 0.479278, 0.583281)" gradientUnits="userSpaceOnUse" r="457.504398" cx="269.32089" id="0fa4662237" cy="0" fx="269.32089" fy="0"><stop stop-opacity="1" stop-color="rgb(0%, 0%, 0%)" offset="0"/><stop stop-opacity="1" stop-color="rgb(0%, 0%, 0%)" offset="1"/></radialGradient><clipPath id="3767395239"><rect x="0" width="271" y="0" height="371"/></clipPath></defs><g mask="url(#f5818d5e26)"><g transform="matrix(1, 0, 0, 1, 53, 2)"><g clip-path="url(#3767395239)"><g clip-path="url(#7a5977428b)"><g clip-path="url(#38c7704cad)"><path fill="url(#0fa4662237)" d="M 0.480469 0.582031 L 0.480469 370.417969 L 269.800781 370.417969 L 269.800781 0.582031 Z M 0.480469 0.582031 " fill-rule="nonzero"/></g></g></g></g></g></svg>