<svg xmlns="http://www.w3.org/2000/svg" xmlns:xlink="http://www.w3.org/1999/xlink" width="500" zoomAndPan="magnify" viewBox="0 0 375 374.999991" height="500" preserveAspectRatio="xMidYMid meet" version="1.0"><defs><filter x="0%" y="0%" width="100%" height="100%" id="5a69c72421"><feColorMatrix values="0 0 0 0 1 0 0 0 0 1 0 0 0 0 1 0 0 0 1 0" color-interpolation-filters="sRGB"/></filter><mask id="76b5be92bc"><g filter="url(#5a69c72421)"><rect x="-37.5" width="450" fill="#000000" y="-37.499999" height="449.999989" fill-opacity="0.2"/></g></mask><clipPath id="067c93543b"><rect x="0" width="375" y="0" height="375"/></clipPath></defs><g mask="url(#76b5be92bc)"><g transform="matrix(1, 0, 0, 1, 0, 0)"><g clip-path="url(#067c93543b)"><path stroke-linecap="butt" transform="matrix(5.859375, 0, 0, 5.859375, 0.0000045, 0)" fill-opacity="1" fill="#000000" fill-rule="nonzero" stroke-linejoin="miter" d="M 38.430668 25.250668 C 39.061334 24.776668 39.634668 24.241334 40.150001 23.644001 C 40.665334 23.046668 41.111334 22.401334 41.488001 21.708001 C 38.800001 19.818668 35.528668 18.710668 32.000667 18.710668 C 28.472667 18.710668 25.200667 19.818668 22.512667 21.708001 C 22.89 22.401334 23.336 23.046001 23.851334 23.643334 C 24.366667 24.240668 24.939334 24.776668 25.57 25.250668 C 27.426667 24.058001 29.632667 23.362001 32.002001 23.362001 C 34.370667 23.362001 36.574001 24.058001 38.430668 25.250668 " stroke="#000000" stroke-width="0.001" stroke-opacity="1" stroke-miterlimit="4"/><path stroke-linecap="butt" transform="matrix(5.859375, 0, 0, 5.859375, 0.0000045, 0)" fill-opacity="1" fill="#000000" fill-rule="nonzero" stroke-linejoin="miter" d="M 48.534668 34.108668 C 47.744001 34.104002 46.962001 34.184002 46.188668 34.348668 C 45.414668 34.513335 44.668001 34.759335 43.948001 35.086002 C 43.950001 35.184002 43.954668 35.279335 43.954668 35.377335 C 43.956001 35.915335 43.920668 36.451335 43.849335 36.984668 C 43.778001 37.518668 43.671335 38.045335 43.529335 38.564668 C 43.387335 39.084002 43.211335 39.591335 43.001335 40.086668 C 42.790668 40.582669 42.548668 41.062002 42.274001 41.524669 C 41.999334 41.988002 41.695334 42.430669 41.360668 42.852669 C 41.026668 43.274669 40.666001 43.672669 40.278668 44.046669 C 39.891334 44.420002 39.480001 44.766669 39.046001 45.084669 C 38.612001 45.403335 38.158668 45.691335 37.686001 45.948669 C 37.836001 47.520669 38.324668 49.054002 39.122001 50.430669 C 39.498001 50.250669 39.867334 50.056002 40.229334 49.848002 C 40.590668 49.640002 40.944001 49.418002 41.289334 49.183336 C 41.634001 48.948669 41.970001 48.701336 42.296668 48.441336 C 42.623334 48.181336 42.939335 47.910002 43.245335 47.626002 C 43.551335 47.342002 43.846668 47.047335 44.130668 46.741335 C 44.414668 46.436002 44.686668 46.120002 44.946668 45.793335 C 45.207335 45.467335 45.454668 45.131335 45.689335 44.786669 C 45.924668 44.442002 46.146668 44.088669 46.354668 43.727335 C 46.563335 43.365335 46.758001 42.996669 46.938668 42.620669 C 47.120001 42.244669 47.286001 41.862002 47.438001 41.473335 C 47.590668 41.084669 47.727335 40.690669 47.850001 40.292002 C 47.972668 39.892668 48.080001 39.490002 48.172001 39.082668 C 48.264668 38.676002 48.341335 38.266002 48.402668 37.853335 C 48.464668 37.440668 48.510001 37.026002 48.540668 36.609335 C 48.571335 36.193335 48.586001 35.776668 48.584668 35.359335 C 48.584001 34.942002 48.567335 34.525335 48.534668 34.108668 " stroke="#000000" stroke-width="0.001" stroke-opacity="1" stroke-miterlimit="4"/><path stroke-linecap="butt" transform="matrix(5.859375, 0, 0, 5.859375, 0.0000045, 0)" fill-opacity="1" fill="#000000" fill-rule="nonzero" stroke-linejoin="miter" d="M 20.044667 35.376668 C 20.044667 35.266002 20.05 35.154002 20.052667 35.044668 C 19.330667 34.725335 18.582667 34.486668 17.809333 34.328668 C 17.035333 34.170668 16.253333 34.097335 15.464 34.108668 C 15.432667 34.526668 15.416667 34.950668 15.416667 35.376668 C 15.416667 35.769335 15.43 36.161335 15.456667 36.553335 C 15.484 36.944668 15.525333 37.334668 15.58 37.723335 C 15.634667 38.112002 15.702667 38.498668 15.784667 38.882668 C 15.866667 39.266002 15.962667 39.646668 16.071333 40.024002 C 16.18 40.401335 16.302 40.774002 16.437333 41.142669 C 16.572667 41.510669 16.720667 41.874002 16.881333 42.232002 C 17.042667 42.590002 17.216 42.942002 17.401333 43.288002 C 17.587333 43.634002 17.784667 43.972669 17.994667 44.304669 C 18.204667 44.636002 18.425333 44.960002 18.658 45.276669 C 18.890667 45.592669 19.134 45.900002 19.388667 46.199335 C 19.642667 46.498002 19.907333 46.788002 20.182 47.068002 C 20.456667 47.348669 20.741334 47.618669 21.034667 47.879335 C 21.328667 48.139336 21.631334 48.388669 21.942667 48.628002 C 22.254667 48.866669 22.574 49.094002 22.901334 49.310669 C 23.229334 49.526669 23.564 49.731336 23.906 49.924002 C 24.248 50.116669 24.596 50.296669 24.950667 50.464669 C 25.35 49.780669 25.672 49.061336 25.916667 48.307336 C 26.161334 47.554002 26.323334 46.782669 26.402 45.994002 C 25.923334 45.738669 25.464667 45.452002 25.024667 45.134002 C 24.584667 44.816669 24.168667 44.470669 23.776 44.096669 C 23.382667 43.722669 23.017334 43.324002 22.678 42.900002 C 22.339334 42.476669 22.030667 42.032002 21.752 41.566669 C 21.473334 41.101335 21.227334 40.619335 21.014 40.120668 C 20.800667 39.621335 20.622 39.110668 20.477333 38.588002 C 20.333333 38.064668 20.224667 37.534668 20.152667 36.997335 C 20.08 36.459335 20.044 35.919335 20.044667 35.376668 " stroke="#000000" stroke-width="0.001" stroke-opacity="1" stroke-miterlimit="4"/><path stroke-linecap="butt" transform="matrix(5.859375, 0, 0, 5.859375, 0.0000045, 0)" fill-opacity="1" fill="#000000" fill-rule="nonzero" stroke-linejoin="miter" d="M 8.814666 34.028668 C 14.732667 30.596001 22.194667 32.330001 25.942 37.848668 L 28.252001 36.508668 C 28.213334 36.380668 28.180667 36.250668 28.155334 36.118668 C 28.130001 35.986668 28.111334 35.854002 28.099334 35.720002 C 28.087334 35.586668 28.082001 35.452668 28.084001 35.318002 C 28.086001 35.184002 28.094667 35.050002 28.110001 34.916668 C 28.125334 34.783335 28.148001 34.651335 28.176667 34.520002 C 28.206001 34.389335 28.241334 34.260002 28.284001 34.132668 C 28.326001 34.005335 28.374667 33.880002 28.430001 33.758002 C 28.485334 33.635335 28.546001 33.516002 28.613334 33.400002 C 28.680667 33.284002 28.754001 33.171335 28.832667 33.062668 C 28.912001 32.954001 28.996001 32.849335 29.085334 32.749335 C 29.175334 32.649335 29.269334 32.554668 29.368667 32.464001 C 29.468001 32.373335 29.572001 32.288668 29.680001 32.208668 C 29.788001 32.129335 29.899334 32.055335 30.015334 31.986668 C 30.130667 31.918668 30.249334 31.856668 30.371334 31.800001 C 30.493334 31.744001 30.618001 31.694668 30.745334 31.651335 C 30.872001 31.608001 31.001334 31.571335 31.132001 31.540668 L 31.132001 28.898001 C 24.457334 28.444668 19.180667 22.798001 19.179333 15.898001 C 19.18 10.600667 22.289334 6.042667 26.752667 4.004 L 26.718667 4.016 C 26.730667 4.010667 26.742 4.005334 26.752667 4 C 26.336 4.138667 25.924667 4.294 25.519334 4.465334 C 25.114 4.636 24.716667 4.822667 24.326 5.025334 C 23.935334 5.227334 23.553334 5.444667 23.179334 5.676667 C 22.806 5.908667 22.442 6.155334 22.088 6.416 C 21.733334 6.676667 21.39 6.950667 21.057334 7.238 C 20.724 7.525334 20.403333 7.825334 20.093333 8.138 C 19.784 8.450667 19.487333 8.774667 19.203333 9.110667 C 18.919333 9.446667 18.648667 9.792667 18.392 10.15 C 18.134667 10.506667 17.892667 10.873334 17.664 11.248667 C 17.436 11.624667 17.222667 12.009334 17.024 12.402001 C 16.826 12.794667 16.643333 13.194001 16.476667 13.600667 C 16.309333 14.008001 16.158667 14.420667 16.024 14.839334 C 15.889333 15.258001 15.770667 15.681334 15.669333 16.109334 C 15.568 16.537334 15.482667 16.968667 15.415333 17.402667 C 15.347333 17.837334 15.296667 18.274001 15.262667 18.712668 C 15.228667 19.151334 15.212667 19.590001 15.213333 20.030001 L 15.213333 20.034001 C 15.213333 22.290668 15.654 24.442668 16.454 26.410668 C 15.386 26.561335 14.342 26.813335 13.322667 27.166668 C 12.303333 27.520001 11.327333 27.967335 10.395333 28.510001 C 3.953333 32.248668 0.909999 39.629335 2.353333 46.568002 C 2.323999 46.258669 2.305333 45.948669 2.297999 45.638669 C 2.290666 45.328002 2.294666 45.017335 2.309999 44.707335 C 2.324666 44.397335 2.350666 44.088002 2.387333 43.779335 C 2.424666 43.471335 2.472666 43.164669 2.531333 42.859335 C 2.589999 42.554669 2.659999 42.252002 2.739999 41.952002 C 2.820666 41.652002 2.911999 41.355335 3.013333 41.062002 C 3.114666 40.768669 3.226666 40.479335 3.349333 40.193335 C 3.471333 39.908002 3.603333 39.627335 3.745999 39.351335 C 3.887999 39.075335 4.039999 38.804668 4.201333 38.539335 C 4.363333 38.274002 4.533999 38.014668 4.713999 37.762002 C 4.893999 37.508668 5.082666 37.262668 5.280666 37.022668 C 5.477999 36.783335 5.683999 36.551335 5.898666 36.326002 C 6.112666 36.101335 6.334666 35.884668 6.564 35.675335 C 6.794 35.466002 7.030666 35.265335 7.274666 35.073335 C 7.518666 34.881335 7.769333 34.698002 8.026 34.524002 C 8.283333 34.349335 8.546 34.184668 8.814666 34.028668 " stroke="#000000" stroke-width="0.001" stroke-opacity="1" stroke-miterlimit="4"/><path stroke-linecap="butt" transform="matrix(5.859375, 0, 0, 5.859375, 0.0000045, 0)" fill-opacity="1" fill="#000000" fill-rule="nonzero" stroke-linejoin="miter" d="M 61.998669 43.300669 C 62.056669 37.412002 59.040002 31.664668 53.604002 28.510001 C 52.671335 27.967335 51.695335 27.520001 50.676002 27.166668 C 49.656668 26.814001 48.613335 26.562001 47.544668 26.410668 C 48.344668 24.442668 48.786001 22.290668 48.786001 20.034001 L 48.786001 20.030668 C 48.786668 19.591334 48.770001 19.152001 48.736668 18.713334 C 48.702668 18.274667 48.652001 17.838001 48.584001 17.404001 C 48.516001 16.969334 48.431335 16.538001 48.330001 16.110001 C 48.228668 15.682001 48.110001 15.258667 47.975335 14.840001 C 47.840668 14.421334 47.690001 14.008667 47.523335 13.601334 C 47.356001 13.194667 47.173335 12.794667 46.975335 12.402001 C 46.777335 12.009334 46.564001 11.625334 46.335335 11.249334 C 46.107335 10.873334 45.864668 10.506667 45.607335 10.15 C 45.350668 9.792667 45.080001 9.446667 44.796001 9.110667 C 44.512001 8.774667 44.215335 8.450667 43.906001 8.138 C 43.596668 7.825334 43.275335 7.525334 42.942001 7.238 C 42.609334 6.950667 42.266001 6.676667 41.911334 6.416 C 41.557334 6.155334 41.193334 5.908667 40.819334 5.676667 C 40.446001 5.444667 40.064001 5.227334 39.673334 5.025334 C 39.282668 4.822667 38.884668 4.636 38.480001 4.465334 C 38.074668 4.294 37.663334 4.138667 37.246001 4 C 37.257334 4.006 37.268668 4.012 37.280001 4.017334 L 37.246001 4.004667 C 41.710001 6.042667 44.818668 10.602 44.818668 15.898667 C 44.818001 22.798668 39.542001 28.446001 32.866001 28.898668 L 32.866001 31.542001 C 33.081334 31.592001 33.290667 31.658668 33.494667 31.744001 C 33.698001 31.828668 33.893334 31.930668 34.080001 32.048001 C 34.266667 32.166001 34.442667 32.298668 34.606667 32.446668 C 34.771334 32.594001 34.922001 32.754001 35.059334 32.927335 C 35.196667 33.100001 35.318667 33.283335 35.425334 33.476668 C 35.531334 33.670002 35.621334 33.871335 35.694001 34.079335 C 35.766001 34.288002 35.820668 34.501335 35.857334 34.719335 C 35.894001 34.936668 35.912001 35.156002 35.912001 35.376668 C 35.912001 35.792668 35.848001 36.190668 35.729334 36.568002 L 38.025334 37.900002 C 41.762001 32.346001 49.249335 30.590001 55.183335 34.032668 C 55.452002 34.188668 55.714668 34.353335 55.971335 34.528002 C 56.228668 34.702002 56.478668 34.885335 56.722668 35.077335 C 56.966668 35.269335 57.203335 35.470002 57.432668 35.679335 C 57.662669 35.888002 57.884002 36.105335 58.098002 36.330002 C 58.312669 36.554668 58.518002 36.786668 58.716002 37.026668 C 58.913335 37.266002 59.102002 37.512002 59.282002 37.765335 C 59.462002 38.018002 59.632669 38.277335 59.794669 38.542002 C 59.956002 38.807335 60.108002 39.078002 60.250002 39.354002 C 60.392669 39.630002 60.524669 39.910668 60.646669 40.196002 C 60.769335 40.481335 60.881335 40.770669 60.982669 41.064002 C 61.084669 41.357335 61.175335 41.654002 61.256002 41.954002 C 61.336669 42.254002 61.406002 42.556002 61.465335 42.860669 C 61.524002 43.166002 61.572002 43.472002 61.609335 43.780669 C 61.646002 44.088669 61.672002 44.398002 61.687335 44.708002 C 61.702669 45.018002 61.706669 45.328669 61.699335 45.638669 C 61.692002 45.949335 61.674002 46.258669 61.645335 46.568002 L 61.645335 46.566002 L 61.645335 46.574002 C 61.873335 45.488002 61.988002 44.392669 61.999335 43.301335 " stroke="#000000" stroke-width="0.001" stroke-opacity="1" stroke-miterlimit="4"/><path stroke-linecap="butt" transform="matrix(5.859375, 0, 0, 5.859375, 0.0000045, 0)" fill-opacity="1" fill="#000000" fill-rule="nonzero" stroke-linejoin="miter" d="M 42.362668 56.348003 C 41.871334 56.063336 41.400001 55.748003 40.949334 55.402003 C 40.498668 55.056002 40.072001 54.682669 39.670001 54.280669 C 39.268001 53.879336 38.894001 53.453336 38.548001 53.002669 C 38.201334 52.552002 37.886001 52.081336 37.600668 51.589336 C 37.316001 51.098002 37.064001 50.590002 36.845334 50.065336 C 36.626668 49.541336 36.443334 49.004669 36.294668 48.456002 C 36.146001 47.908002 36.034001 47.352002 35.957334 46.788669 C 35.881334 46.226002 35.842001 45.660002 35.840001 45.092002 C 35.836668 44.106669 35.945334 43.134002 36.167334 42.174002 C 36.389334 41.214002 36.717334 40.292002 37.152668 39.408002 L 34.850001 38.070002 C 34.668001 38.266002 34.468001 38.440668 34.249334 38.595335 C 34.031334 38.750002 33.799334 38.880668 33.554001 38.987335 C 33.309334 39.094002 33.055334 39.174668 32.794001 39.228668 C 32.532001 39.283335 32.267334 39.310002 32.000001 39.310002 C 31.727334 39.310002 31.458001 39.282002 31.191334 39.226002 C 30.924667 39.169335 30.666667 39.086002 30.418001 38.975335 C 30.168667 38.865335 29.934001 38.730002 29.713334 38.570002 C 29.492667 38.410002 29.290667 38.229335 29.108001 38.026668 L 26.820667 39.352668 C 29.832667 45.408002 27.612 52.880002 21.634667 56.346669 C 21.368 56.503336 21.095334 56.650003 20.817334 56.786669 C 20.539333 56.923336 20.257333 57.049336 19.97 57.166003 C 19.683333 57.282003 19.392667 57.388003 19.098 57.483336 C 18.803333 57.579336 18.506 57.664003 18.205333 57.738003 C 17.904667 57.812003 17.602 57.875336 17.296667 57.927336 C 16.991333 57.980003 16.685333 58.021336 16.376667 58.051336 C 16.068667 58.081336 15.76 58.100669 15.450667 58.108669 C 15.140667 58.116669 14.831333 58.114003 14.522 58.099336 C 14.213333 58.085336 13.904667 58.060003 13.597333 58.024003 C 13.29 57.987336 12.984 57.940003 12.68 57.881336 C 12.376 57.823336 12.074 57.754003 11.775333 57.674003 C 11.476 57.594003 11.18 57.503336 10.888 57.402003 C 10.595333 57.300669 10.306666 57.189336 10.022 57.067336 C 9.737333 56.945336 9.458 56.813336 9.182666 56.670669 C 8.908 56.528669 8.638 56.376669 8.374 56.215336 C 8.11 56.054003 7.852 55.883336 7.6 55.702669 C 12.858666 60.428003 20.740667 61.470669 27.183334 57.732003 C 28.112667 57.194003 28.982001 56.572003 29.792001 55.866669 C 30.602001 55.161336 31.337334 54.385336 31.998001 53.538669 C 32.659334 54.386669 33.394667 55.163336 34.205334 55.869336 C 35.016001 56.575336 35.886668 57.197336 36.817334 57.736003 C 43.258001 61.474003 51.141335 60.432669 56.400002 55.706669 L 56.374668 55.724669 L 56.400002 55.704003 C 56.148002 55.884003 55.890002 56.054669 55.626002 56.216003 C 55.361335 56.378003 55.092002 56.529336 54.816668 56.671336 C 54.542002 56.814003 54.262002 56.946003 53.977335 57.068003 C 53.692668 57.190003 53.404002 57.301336 53.111335 57.402669 C 52.818668 57.504003 52.523335 57.594669 52.224002 57.674669 C 51.924668 57.754669 51.623335 57.823336 51.319335 57.882003 C 51.015335 57.940003 50.709335 57.987336 50.402002 58.024003 C 50.094668 58.060669 49.786001 58.085336 49.476668 58.100003 C 49.167335 58.114003 48.858001 58.117336 48.548668 58.109336 C 48.238668 58.100669 47.930001 58.082003 47.622001 58.051336 C 47.314001 58.021336 47.007335 57.980003 46.702001 57.928003 C 46.396668 57.875336 46.094001 57.812669 45.793335 57.738669 C 45.492668 57.664669 45.194668 57.579336 44.900001 57.484003 C 44.606001 57.388669 44.314668 57.282669 44.028001 57.166669 C 43.741335 57.050003 43.458668 56.924003 43.180668 56.787336 C 42.902668 56.650669 42.630668 56.504003 42.363334 56.348003 " stroke="#000000" stroke-width="0.001" stroke-opacity="1" stroke-miterlimit="4"/></g></g></g></svg>